<?xml version="1.0" standalone="no"?>
<!DOCTYPE svg PUBLIC "-//W3C//DTD SVG 20010904//EN"
 "http://www.w3.org/TR/2001/REC-SVG-20010904/DTD/svg10.dtd">
<svg version="1.0" xmlns="http://www.w3.org/2000/svg"
 width="150.000000pt" height="150.000000pt" viewBox="0 0 150.000000 150.000000"
 preserveAspectRatio="xMidYMid meet">

<g transform="translate(0.000000,150.000000) scale(0.100000,-0.100000)"
fill="#2a63ff" stroke="none">
<path d="M860 853 l0 -466 -157 7 c-87 4 -195 13 -240 19 l-83 13 28 -29 c15
-16 39 -36 55 -45 15 -9 27 -19 27 -22 0 -3 -29 -11 -64 -17 -66 -11 -157 -50
-163 -70 -3 -7 18 -5 59 8 84 25 227 26 317 0 199 -55 293 -70 426 -66 179 6
239 20 321 76 39 27 76 49 82 49 7 0 12 6 12 14 0 17 -57 39 -65 25 -4 -5 -11
-9 -16 -9 -5 0 0 14 13 30 18 24 29 30 53 28 30 -3 30 -3 33 51 2 30 0 66 -3
80 -7 25 -8 24 -24 -16 -26 -66 -30 -69 -113 -56 -40 7 -102 10 -138 9 -73 -3
-99 8 -185 76 -60 48 -63 53 -54 98 l6 35 2 -41 c1 -55 26 -77 35 -33 11 57 6
90 -19 127 -31 45 -33 72 -5 65 13 -3 20 0 21 8 0 8 2 33 4 57 3 33 -1 48 -16
63 -24 24 -71 25 -92 1 -19 -21 -22 -63 -7 -78 17 -17 18 -78 2 -111 -14 -29
-14 -40 3 -115 9 -46 17 -112 16 -147 -2 -44 2 -67 11 -73 8 -6 1 -8 -22 -6
l-35 3 -3 463 c-1 296 -6 462 -12 462 -6 0 -10 -165 -10 -467z m143 -329 c29
-14 66 -37 84 -50 17 -13 37 -24 43 -24 18 0 62 -38 52 -44 -5 -3 -17 3 -27
14 -10 11 -26 20 -36 20 -9 0 -19 4 -21 9 -1 5 -39 30 -83 55 -88 50 -94 61
-12 20z"/>
<path d="M756 1168 c-77 -96 -180 -245 -255 -370 -77 -129 -190 -333 -186
-336 2 -2 29 2 62 8 32 7 148 14 259 17 l201 5 -24 91 c-13 50 -29 155 -35
235 -11 126 -10 156 4 242 10 53 24 117 32 141 8 24 14 45 12 47 -2 2 -34 -34
-70 -80z"/>
<path d="M195 944 c-53 -13 -112 -57 -139 -103 -11 -20 -21 -60 -24 -102 -6
-88 15 -146 78 -214 88 -94 95 -117 60 -185 -20 -39 -77 -84 -130 -101 -19 -7
-15 -8 15 -3 22 3 58 17 80 32 102 71 112 154 32 287 -38 65 -47 88 -47 127 0
94 43 148 118 148 38 0 49 -5 78 -37 30 -32 34 -44 34 -89 0 -32 -5 -56 -12
-61 -7 -4 -19 -15 -26 -24 -10 -14 -9 -16 8 -15 45 2 110 106 110 176 0 41
-20 101 -36 107 -8 3 -14 10 -14 17 0 16 -58 44 -102 48 -21 2 -58 -1 -83 -8z"/>
</g>
</svg>
